<svg id="Layer_1" enable-background="new 0 0 512 512" viewBox="0 0 512 512" xmlns="http://www.w3.org/2000/svg"><path d="m350.6 309.1c-.1.1-.3.3-.4.4l-55.7 53.1c14.7 9.2 27.4 22.5 35.9 37.7l132-125.9c2.9-2.8 3-7.5.2-10.5l-25.6-26.8c-3.2-3.2-7-3.6-10.5-.3zm-263.3 22.3c-.5-5.2 7.5-6 7.9-.7.8 8.4 14.6 12.6 22.6 6 2.2-1.8 3.5-4.2 3.5-6.8 0-16.5-34.1-2.7-34.1-27.9 0-9.3 7.9-16.1 17-17.6v-5.6c0-2.2 1.8-4 4.2-4 2.3 0 4.1 1.8 4 4.1l-.1 5.5c9.1 1.5 17.1 8.3 17.1 17.6 0 5.3-8 5.3-8 0 0-8.8-14.4-13.5-22.6-6.8-2.2 1.8-3.5 4.2-3.5 6.8 0 16.5 34.1 2.7 34.1 27.9 0 9.4-8 16.1-17 17.6l-.1 5.6c0 5.3-8 5.3-8 0v-5.6c-8.6-1.4-16.2-7.4-17-16.1zm19.9-202.9h176.5c8.8 0 13.5-10.8 7.1-17.2-1.8-1.8-4.4-3-7.1-3h-176.5c-8.8 0-13.5 10.8-7.1 17.2 1.8 1.9 4.3 3 7.1 3zm150 8h-23.3l2.7 62.7h17.9zm-50.1 0h-23.3l2.7 62.7h18zm-50.1 0h-23.3l2.7 62.7h17.9zm-50 0c-14.3-.2-22.8-16.3-14.8-28.2h-2.3c-2.2 0-4-1.8-4-4v-8.8h-22.7c-8.8 0-15.9 7.1-15.9 15.9v301.7h39.6c13.2 0 23.9 10.7 23.9 23.9v39.7l217 .4c8.9 0 16-7 16-15.9v-62.4l-13.1 12.5c-.5.5-1.2.9-2 1.1l-37.8 8.7c-3.6.8-7.3.4-10.5-1.3v7.5c0 16.6-13.5 30.1-30.1 30.1h-82.8c-16.6 0-30.1-13.5-30.1-30.1v-27.6c0-16.6 13.5-30.1 30.1-30.1h82.8c11.3 0 21.5 6.3 26.6 16l5.6-21.3c.4-1.6 1.6-2.5 2.9-3.7l58.4-55.7v-193.5c0-8.8-7.1-15.9-15.9-15.9h-22.7v8.8c0 2.2-1.8 4-4 4h-2.4c8.1 11.9-.5 28-14.8 28.2l2.7 62.7c15.3 0 23.7 17 15.1 29 13.4 2.6 18.8 19.3 8.9 29.2-3.1 3.1-7.5 5.1-12.2 5.1h-206c-15.3 0-23.2-18.6-12.2-29.5 2.4-2.4 5.5-4.1 8.9-4.8-8.6-12-.1-29 15.1-29zm179.8 70.7h-182.7c-9 0-13.9 11.1-7.3 17.6 1.9 1.9 4.5 3 7.3 3h182.7c9 0 13.9-11.1 7.3-17.6-1.9-1.8-4.4-3-7.3-3zm-194.3 47.3h206c8.1 0 12.5-9.9 6.5-15.9-1.7-1.7-4-2.7-6.5-2.7h-206c-8.1 0-12.5 9.9-6.6 15.8 1.7 1.7 4 2.8 6.6 2.8zm35.9-55.3-2.7-62.7h-10.8l-2.7 62.7zm150.3 0-2.7-62.7h-10.8l-2.7 62.7zm-50.1 0-2.7-62.7h-10.8l-2.7 62.7zm-50.1 0-2.7-62.7h-10.8l-2.7 62.7zm-78.4-98.9 93.4-53.5c1.3-.7 2.8-.7 4 .1l93.3 53.4h6.3v-6.5l-101.6-58.2-101.6 58.2v6.5zm174.6 0-79.3-45.4-79.3 45.4zm-77.2-72.7 104.6 59.9h25.7c13.2 0 23.9 10.7 23.9 23.9v185.7l69.3-66.1c6.7-6.4 15.1-5.8 21.7.5l25.8 27.1c5.8 6.1 5.6 15.9-.5 21.7l-116.3 110.8v70c0 13.3-10.7 23.9-24 23.9h-7.7c-71-.1-142-.3-213.1-.4-1.4 0-2.4-.5-3.3-1.6l-63.1-63.1c-.7-.7-1.2-1.8-1.2-2.9v-305.6c0-13.2 10.7-23.9 23.9-23.9h25.7l104.7-59.9c1.2-.8 2.7-.7 3.9 0zm74.9 381.9c-.5-2.2-.5-4.5 0-6.7v-3.2c0-12.2-9.9-22.1-22.1-22.1h-82.8c-12.2 0-22.1 9.9-22.1 22.1v27.6c0 12.1 9.9 22.1 22.1 22.1h82.8c12.2 0 22.1-9.9 22.1-22.1zm17-40.6-9 34.8v4.8c.1 1.5 3.6 5.9 8.7 4.7l35-8.1c-8-14.6-20.4-27.6-34.7-36.2zm-123.9-75.6c-5.3 0-5.3-8 0-8h117.3c5.3 0 5.3 8 0 8zm0 28.3c-5.3 0-5.3-8 0-8h117.3c5.3 0 5.3 8 0 8zm0 28.2c-5.3 0-5.3-8 0-8h117.3c5.3 0 5.3 8 0 8zm-79.1 30.7c-5.3 0-5.3-8 0-8h34.6c5.3 0 5.3 8 0 8zm85.4 24.2c-1.8-1.3-2.1-3.8-.8-5.6s3.8-2.1 5.6-.8c18.7 13.9 19.9 20.9 23.8 23.6 3.2 2.3 6.1 3.3 8.1 3.1 1-.1 1.3-.4 1.4-1.5.1-2.5-1.4-6.5-5.4-12.1-8.2-11.4-2.7-19 4.7-17.3 3.9.9 9.4 4.8 15.7 13 .5.6.2 1 .4.9 3.3-2.5 5.7-13 11.4-14.1 4.3-.9 8 3.3 10.8 17.9 1 5.2-6.9 6.7-7.9 1.5-1.7-8.7-1-11.7-1.4-11.6-.3.1-.8 2-2 4.1-1.7 3.1-3.6 6.5-6.1 8.5-3.6 2.7-7.5 2.9-11.6-2.4-4.3-5.6-7.7-8.6-10-9.7.3 1.1 1.1 2.6 2.4 4.4 5.9 8.2 9.8 17.9 4.3 23.5-4.8 5-13.3 2.6-19.5-1.8-6.1-4.3-5-9.6-23.9-23.6zm-69 66.2v-33.9c0-8.8-7.1-15.9-15.9-15.9h-34z" fill="rgb(0,0,0)"/></svg>