<?xml version="1.0" encoding="utf-8"?>
<!-- Generator: Adobe Illustrator 29.4.0, SVG Export Plug-In . SVG Version: 9.03 Build 0)  -->
<svg version="1.0" id="katman_1" xmlns="http://www.w3.org/2000/svg" xmlns:xlink="http://www.w3.org/1999/xlink" x="0px" y="0px"
	 viewBox="0 0 1700 342" style="enable-background:new 0 0 1700 342;" xml:space="preserve">
<style type="text/css">
	.st0{fill-rule:evenodd;clip-rule:evenodd;fill:#081C3A;}
</style>
<path class="st0" d="M527.3,47.3c2.3,3,3,6,3,9.8c0,16.5-0.8,33.1-3,49.6c0,1.5-0.8,3.8-1.5,6L372.4,69.1l-152.6,43.6
	c0-2.3-0.8-3.8-0.8-6c-2.3-16.5-3-33.1-3-49.6c0-3.8,0.8-6.8,3-9.8c2.3-3,5.3-4.5,9-6C244.5,36.8,372.3,0,373.1,0
	s129.3,36.8,145.1,41.3C522,42,525,43.5,527.3,47.3z M223.5,133.7c4.5,21.8,11.3,42.9,20.3,63.9l129.4-36.8l129.3,36.8
	c9-21.1,15.8-42.1,20.3-63.9L373.2,90.8L223.5,133.7z M253.6,217.2c0.8,1.5,0.8,2.3,1.5,3c9.8,18,21.1,35.3,34.6,51.1
	c3,3.8,3,3.8,3,3.8l81.2-22.6l81.2,22.6c0,0,0,0,3-3.8c12.8-15.8,24.8-33.1,34.6-51.1c0.8-0.8,0.8-2.3,1.5-3l-119.5-34.6
	L253.6,217.2z M1334,161.5h-81.2v-38.3h71.4v-22.6h-71.4V63.8h80.4V41.2H1228v142.1h106V161.5L1334,161.5z M1388.1,184.1h-24.8V42
	h63.2c32.3,0,52.6,17.3,52.6,45.1c0,23.3-14.3,37.6-33.8,42.9l38.3,53.4h-29.3l-34.6-49.6h-30.8v50.4h-0.8V184.1z M1388.1,112.7
	h36.1c18,0,29.3-9,29.3-24.1c0-15.8-11.3-24.1-29.3-24.1h-36.1V112.7z M945.3,184.1h-25.6l62.4-142.8h23.3l62.4,142.8h-26.3
	l-14.3-34.6h-66.9L945.3,184.1z M969.4,127.7h48.9l-24.8-57.1L969.4,127.7z M307.7,292.4c0.8,1.5,1.5,2.3,2.3,3c2.3,2.3,3.8,3.8,6,6
	c15,14.3,31.6,27.1,49.6,38.3c2.3,1.5,5.3,2.3,7.5,2.3s5.3-0.8,7.5-2.3c18-11.3,34.6-23.3,49.6-38.3c2.3-2.3,3.8-3.8,6-6
	c0.8-0.8,1.5-1.5,2.3-3c0,0-63.9-18-65.4-18C371.7,273.6,307.7,292.4,307.7,292.4z M680.7,184.1H628V42h52.6
	c44.4,0,75.2,30.8,75.2,70.7C755.8,152.5,725,184.1,680.7,184.1z M652.1,161.5h27.8c30.1,0,48.9-20.3,48.9-48.1
	s-19.5-48.1-48.9-48.1h-27.8V161.5L652.1,161.5z M1191.9,237.5l42.9,94h-11.3l-11.3-24.8h-51.1l-11.3,24.8h-10.5l42.9-94H1191.9z
	 M1208.4,297.6l-21.1-48.1l-21.1,48.1H1208.4z M1109.9,331.4h10.5v-93.2h-10.5V331.4z M1234.7,248h31.6v84.2h10.5V248h31.6v-9.8
	h-73.7V248L1234.7,248z M667.1,237.5l42.9,94h-11.3l-11.3-24.8h-51.1L625,331.4h-10.5l42.9-94h9.7V237.5z M682.9,297.6l-21.1-48.1
	l-21.1,48.1H682.9z M1117.5,184.1h-24.8V42h55.6c33.1,0,54.1,18.8,54.1,47.4c0,32.3-25.6,48.9-56.4,48.9h-27.8v45.9h-0.7V184.1z
	 M1117.5,115.7h29.3c18.8,0,30.8-10.5,30.8-25.6c0-16.5-12-25.6-30.8-25.6h-29.3V115.7z M1338.5,289.3h51.1v-9.8h-51.1v-32.3h57.1
	v-9.8H1328v94h68.4v-9.8h-57.9V289.3z M1451.3,279.6c-20.3-4.5-25.6-9-25.6-18c0-8.3,7.5-15,20.3-15c9.8,0,18,3,27.1,10.5l6-8.3
	c-9.8-7.5-19.5-11.3-33.1-11.3c-18,0-30.8,10.5-30.8,25.6c0,15.8,9.8,22.6,31.6,27.1c19.5,4.5,24.1,9,24.1,18
	c0,9.8-8.3,15.8-21.1,15.8c-12.8,0-22.6-4.5-32.3-13.5l-6.8,7.5c11.3,9.8,23.3,15,38.3,15c18.8,0,32.3-10.5,32.3-26.3
	C1481.3,292.4,1472.3,284.1,1451.3,279.6z M843.8,279.6c-20.3-4.5-25.6-9-25.6-18c0-8.3,7.5-15,20.3-15c9.8,0,18,3,27.1,10.5l6-8.3
	c-9.8-7.5-19.5-11.3-33.1-11.3c-18,0-30.8,10.5-30.8,25.6c0,15.8,9.8,22.6,31.6,27.1c19.5,4.5,24.1,9,24.1,18
	c0,9.8-8.3,15.8-21.1,15.8s-22.6-4.5-32.3-13.5l-6.8,7.5c11.3,9.8,23.3,15,38.3,15c18.8,0,32.3-10.5,32.3-26.3
	C874.6,292.4,864.8,284.1,843.8,279.6z M1052.8,323.9c-20.3,0-36.1-17.3-36.1-39.1s15.8-38.3,36.1-38.3c12.8,0,21.8,5.3,29.3,12.8
	l7.5-7.5c-9-9-19.5-15-36.8-15c-27.8,0-47.4,21.8-47.4,48.9c0,27.1,20.3,48.1,46.6,48.1c17.3,0,27.8-6.8,37.6-16.5l-6.8-6.8
	C1074.6,318.7,1065.6,323.9,1052.8,323.9z M759.6,279.6c-20.3-4.5-25.6-9-25.6-18c0-8.3,7.5-15,20.3-15c9.8,0,18,3,27.1,10.5l6-8.3
	c-9.8-7.5-19.5-11.3-33.1-11.3c-18,0-30.8,10.5-30.8,25.6c0,15.8,9.8,22.6,31.6,27.1c19.5,4.5,24.1,9,24.1,18
	c0,9.8-8.3,15.8-21.1,15.8s-22.6-4.5-32.3-13.5L719,318c11.3,9.8,23.3,15,38.3,15c18.8,0,32.3-10.5,32.3-26.3
	C790.4,292.4,780.6,284.1,759.6,279.6z M987.4,284.8c0,26.3-19.5,48.9-48.1,48.9s-47.4-22.6-47.4-48.1c0-26.3,19.5-48.9,48.1-48.9
	S987.4,258.5,987.4,284.8z M976.9,284.8c0-21.1-15.8-39.1-36.8-39.1c-21.1,0-36.8,17.3-36.8,39.1s15.8,39.1,36.8,39.1
	C961.1,323.9,976.9,306.6,976.9,284.8z M906.2,184.1h-29.3l-34.6-49.6h-30.8v49.6h-24.8V42h63.2c32.3,0,52.6,17.3,52.6,45.1
	c0,23.3-14.3,37.6-33.8,42.9L906.2,184.1z M847.6,112.7c18,0,29.3-9,29.3-24.1c0-15.8-11.3-24.1-29.3-24.1h-36.1v47.4h36.1V112.7z"
	/>
</svg>
