<?xml version="1.0" encoding="UTF-8"?><svg id="Ebene_2" xmlns="http://www.w3.org/2000/svg" viewBox="0 0 337.26 88.84"><defs><style>.cls-1{fill:#0b4860;}</style></defs><g id="Logos"><g><g><path class="cls-1" d="M163.9,69.08l-9.09,19.26h-2.91l-9.09-19.26h3.36l7.18,15.27,7.18-15.27h3.36Z"/><path class="cls-1" d="M186.85,79.67h-16.1c.37,3.57,2.82,6.35,6.85,6.35,2.45,0,4.32-.87,5.15-2.49h3.53c-1.2,3.32-4.52,5.31-8.67,5.31-5.94,0-10.04-4.44-10.04-10.13s4.07-10.13,9.88-10.13c6.18,0,10.04,4.77,9.42,11.08Zm-16.06-2.24h12.91c-.17-3.82-2.62-6.1-6.27-6.1s-6.18,2.7-6.64,6.1Z"/><path class="cls-1" d="M211.9,77.3v11.04h-3.15v-10.87c0-3.9-2.28-5.98-5.69-5.98-2.28,0-4.65,1.16-6.31,3.32v13.53h-3.15v-19.26h3.15v2.16c1.79-1.7,4.15-2.66,6.89-2.66,4.9,0,8.26,3.28,8.26,8.72Z"/><path class="cls-1" d="M232.09,88.13c-1.58,.54-2.91,.71-4.07,.71-4.73,0-7.01-2.62-7.01-7.64v-9.42h-5.02v-2.7h5.02v-7.1h3.15v7.1h7.26v2.7h-7.26v9.42c0,3.32,1.41,4.69,4.15,4.69,1.08,0,2.28-.29,3.32-.66l.46,2.91Z"/><path class="cls-1" d="M255.52,69.08v19.26h-3.15v-2.2c-1.78,1.7-4.15,2.7-6.89,2.7-4.9,0-8.26-3.36-8.26-8.8v-10.96h3.15v10.79c0,3.9,2.28,6.06,5.69,6.06,2.28,0,4.65-1.2,6.31-3.4v-13.45h3.15Z"/><path class="cls-1" d="M273.92,68.63v2.99c-3.15,.08-5.73,1.54-7.43,4.19v12.53h-3.15v-19.26h3.15v3.15c1.79-2.28,4.36-3.61,7.43-3.61Z"/><path class="cls-1" d="M297.2,79.67h-16.1c.37,3.57,2.82,6.35,6.85,6.35,2.45,0,4.32-.87,5.15-2.49h3.53c-1.2,3.32-4.52,5.31-8.67,5.31-5.94,0-10.04-4.44-10.04-10.13s4.07-10.13,9.88-10.13c6.18,0,10.04,4.77,9.42,11.08Zm-16.06-2.24h12.91c-.17-3.82-2.62-6.1-6.27-6.1s-6.18,2.7-6.64,6.1Z"/><path class="cls-1" d="M311.61,86.22c2.99,0,5.02-1.12,5.02-3.07,0-1.62-1.29-2.57-3.15-2.91l-4.36-.71c-3.15-.54-5.73-1.95-5.73-5.23,0-3.57,3.15-5.73,7.8-5.73,4.03,0,8.01,1.54,8.38,6.1h-2.95c-.33-2.41-2.37-3.53-5.44-3.53-2.91,0-4.65,1.12-4.65,2.86,0,1.41,.95,2.45,3.57,2.9l3.82,.62c2.78,.46,5.73,1.7,5.73,5.4s-3.4,5.89-8.13,5.89-8.38-2.03-8.96-6.56h2.95c.58,2.57,2.57,3.94,6.1,3.94Z"/></g><g><path class="cls-1" d="M22.7,29.31l12.79,.13c-2.23,4.33-6.17,6.95-11.35,6.95-7.87,0-12.92-5.84-12.92-12.86,0-7.87,5.18-13.32,12.86-13.32,4,0,8.46,1.51,10.36,6.69h11.68C44.21,6.29,34.77,.19,23.81,.19,10.23,.19,0,9.9,0,23.8c0,12.79,9.77,22.7,23.75,22.7,6.23,0,10.89-2.36,14.1-6.3l.46,5.44h8.27V20.59H22.7v8.72Z"/><polygon class="cls-1" points="96.88 10.94 111.12 10.94 111.12 45.65 122.14 45.65 122.14 10.94 136.37 10.94 136.37 1.04 96.88 1.04 96.88 10.94"/><polygon class="cls-1" points="142.87 45.65 176.59 45.65 176.59 36 153.96 36 153.96 28.26 173.77 28.26 173.77 18.82 153.96 18.82 153.96 10.68 176.59 10.68 176.59 1.04 142.87 1.04 142.87 45.65"/><polygon class="cls-1" points="238.47 1.04 230.14 28.72 220.69 1.04 211.51 1.04 202.06 28.72 193.73 1.04 181.99 1.04 196.62 45.91 207.11 45.91 216.1 18.55 225.09 45.91 235.58 45.91 250.21 1.04 238.47 1.04"/><polygon class="cls-1" points="324.99 1.04 314.04 20.46 303.14 1.04 290.88 1.04 308.52 32.2 308.52 45.65 319.68 45.65 319.68 32.2 337.26 1.04 324.99 1.04"/><path class="cls-1" d="M74.53,0c-11.38,0-20.64,10.01-20.64,22.32v23.34h9.78V22.32c0-6.92,4.87-12.55,10.86-12.55s10.86,5.63,10.86,12.55v8.09h-10.12v9.87h10.12v5.38h9.78V22.32c0-12.31-9.26-22.32-20.64-22.32Z"/><path class="cls-1" d="M270.6,0c-11.38,0-20.64,10.01-20.64,22.32v23.34h9.78V22.32c0-6.92,4.87-12.55,10.86-12.55s10.86,5.63,10.86,12.55v8.09h-10.12v9.87h10.12v5.38h9.78V22.32c0-12.31-9.26-22.32-20.64-22.32Z"/></g></g></g></svg>