<svg width="100" height="100" viewBox="0 0 100 100" fill="none" xmlns="http://www.w3.org/2000/svg">
<g clip-path="url(#clip0_436_1489)">
<path d="M87.5 81.0484L50 53.5117M50 53.5117V12.5M50 53.5117L12.5 81.0484" stroke="white" stroke-linecap="round" stroke-linejoin="round"/>
<path d="M50 60C53.3138 60 56 57.3138 56 54C56 50.6862 53.3138 48 50 48C46.6862 48 44 50.6862 44 54C44 57.3138 46.6862 60 50 60Z" fill="#110E14" stroke="#00C386" stroke-linecap="round" stroke-linejoin="round"/>
<path d="M85.1562 69.6238L87.5 81.0484L75.7812 83.3334" stroke="white" stroke-linecap="round" stroke-linejoin="round"/>
<path d="M40.625 21.6398L50 12.5L59.375 21.6398" stroke="white" stroke-linecap="round" stroke-linejoin="round"/>
<path d="M24.2187 83.3334L12.5 81.0484L14.8437 69.6238" stroke="white" stroke-linecap="round" stroke-linejoin="round"/>
<path d="M1 17V9C1 4.58172 4.58172 1 9 1H17" stroke="#373737"/>
<path d="M99 83V91C99 95.4183 95.4183 99 91 99H83" stroke="#373737"/>
</g>
<defs>
<clipPath id="clip0_436_1489">
<rect width="100" height="100" fill="white"/>
</clipPath>
</defs>
</svg>
