<svg width="100" height="100" viewBox="0 0 100 100" fill="none" xmlns="http://www.w3.org/2000/svg">
<g clip-path="url(#clip0_2651_8997)">
<path d="M87.5 81.0484L50 53.5117M50 53.5117V12.5M50 53.5117L12.5 81.0484" stroke="#A4A4A4" stroke-linecap="round" stroke-linejoin="round"/>
<path d="M50 62C54.4184 62 58 58.4184 58 54C58 49.5816 54.4184 46 50 46C45.5816 46 42 49.5816 42 54C42 58.4184 45.5816 62 50 62Z" stroke="#00C386" stroke-linecap="round" stroke-linejoin="round"/>
<path d="M85.1562 69.6238L87.5 81.0484L75.7812 83.3334" stroke="#A4A4A4" stroke-linecap="round" stroke-linejoin="round"/>
<path d="M40.625 21.6398L50 12.5L59.375 21.6398" stroke="#A4A4A4" stroke-linecap="round" stroke-linejoin="round"/>
<path d="M24.2187 83.3334L12.5 81.0484L14.8437 69.6238" stroke="#A4A4A4" stroke-linecap="round" stroke-linejoin="round"/>
<path d="M1 17V9C1 4.58172 4.58172 1 9 1H17" stroke="#A4A4A4"/>
<path d="M99 83V91C99 95.4183 95.4183 99 91 99H83" stroke="#A4A4A4"/>
</g>
<defs>
<clipPath id="clip0_2651_8997">
<rect width="100" height="100" fill="white"/>
</clipPath>
</defs>
</svg>
