<svg width="100" height="100" viewBox="0 0 100 100" fill="none" xmlns="http://www.w3.org/2000/svg">
<g clip-path="url(#clip0_2651_8971)">
<path d="M50 73C53.3138 73 56 70.3138 56 67C56 63.6862 53.3138 61 50 61C46.6862 61 44 63.6862 44 67C44 70.3138 46.6862 73 50 73Z" stroke="#00C386" stroke-linecap="round" stroke-linejoin="round"/>
<path d="M87.5001 30.6378V69.3626C87.5001 70.2705 87.008 71.1068 86.2143 71.548L51.2143 90.9922C50.4593 91.4118 49.5409 91.4118 48.7859 90.9922L13.786 71.548C12.9923 71.1068 12.5001 70.2705 12.5001 69.3626L12.5 30.6378C12.5 29.7299 12.9922 28.8933 13.7859 28.4524L48.7859 9.00795C49.5409 8.58849 50.4593 8.58849 51.2143 9.00795L86.2143 28.4524C87.0076 28.8933 87.5001 29.7299 87.5001 30.6378Z" stroke="#A4A4A4" stroke-linecap="round" stroke-linejoin="round"/>
<path d="M85.4163 69.6759L51.2138 50.6742C50.4588 50.2551 49.5405 50.2551 48.7855 50.6742L14.583 69.6759" stroke="#A4A4A4" stroke-linecap="round" stroke-linejoin="round"/>
<path d="M14.7021 30.3901L48.7861 49.3258C49.5411 49.7449 50.4595 49.7449 51.2145 49.3258L85.417 30.3242" stroke="#A4A4A4" stroke-linecap="round" stroke-linejoin="round"/>
<path d="M50 12.5V50" stroke="#A4A4A4" stroke-linecap="round" stroke-linejoin="round"/>
<path d="M50 81.25V91.6667" stroke="#A4A4A4" stroke-linecap="round" stroke-linejoin="round"/>
<path d="M1 17V9C1 4.58172 4.58172 1 9 1H17" stroke="#A4A4A4"/>
<path d="M99 83V91C99 95.4183 95.4183 99 91 99H83" stroke="#A4A4A4"/>
</g>
<defs>
<clipPath id="clip0_2651_8971">
<rect width="100" height="100" fill="white"/>
</clipPath>
</defs>
</svg>
