<svg width="32" height="32" viewBox="0 0 32 32" fill="none" xmlns="http://www.w3.org/2000/svg">
<path d="M7.33301 21.3335C13.9997 24.6668 17.9997 24.6668 24.6663 21.3335" stroke="#A4A4A4" stroke-linecap="round" stroke-linejoin="round"/>
<path d="M20.6667 23.3335L22 26.0002C22 26.0002 27.5617 24.2291 29.3333 21.3335C29.3333 20.0002 30.0401 10.4713 25.3333 7.3335C23.3333 6.00016 20 5.3335 20 5.3335L18.6667 8.00016H16" stroke="#A4A4A4" stroke-linecap="round" stroke-linejoin="round"/>
<path d="M11.3714 23.3335L10.038 26.0002C10.038 26.0002 4.47625 24.2291 2.70469 21.3335C2.70469 20.0002 1.99791 10.4713 6.70469 7.3335C8.70469 6.00016 12.038 5.3335 12.038 5.3335L13.3713 8.00016H16.038" stroke="#A4A4A4" stroke-linecap="round" stroke-linejoin="round"/>
<path d="M11.333 18.6668C10.2284 18.6668 9.33301 17.473 9.33301 16.0002C9.33301 14.5274 10.2284 13.3335 11.333 13.3335C12.4376 13.3335 13.333 14.5274 13.333 16.0002C13.333 17.473 12.4376 18.6668 11.333 18.6668Z" stroke="#A4A4A4" stroke-linecap="round" stroke-linejoin="round"/>
<path d="M20.667 18.6668C19.5625 18.6668 18.667 17.473 18.667 16.0002C18.667 14.5274 19.5625 13.3335 20.667 13.3335C21.7715 13.3335 22.667 14.5274 22.667 16.0002C22.667 17.473 21.7715 18.6668 20.667 18.6668Z" stroke="#A4A4A4" stroke-linecap="round" stroke-linejoin="round"/>
</svg>
