<svg width="64" height="64" viewBox="0 0 64 64" fill="none" xmlns="http://www.w3.org/2000/svg">
<g clip-path="url(#clip0_2651_9050)">
<path d="M0.639648 10.8799V4.63989C0.639648 2.43076 2.43051 0.639893 4.63965 0.639893H10.8796" stroke="#A4A4A4"/>
<path d="M63.3604 53.1201V59.3601C63.3604 61.5692 61.5695 63.3601 59.3604 63.3601H53.1204" stroke="#A4A4A4"/>
<path d="M44 38.6667C44 38.6667 40 44.0001 32 44.0001C24 44.0001 20 38.6667 20 38.6667" stroke="#00C386" stroke-linecap="round" stroke-linejoin="round"/>
<path d="M22.6663 26.6667C21.93 26.6667 21.333 26.0697 21.333 25.3333C21.333 24.597 21.93 24 22.6663 24C23.4027 24 23.9997 24.597 23.9997 25.3333C23.9997 26.0697 23.4027 26.6667 22.6663 26.6667Z" fill="#00C386" stroke="#00C386" stroke-linecap="round" stroke-linejoin="round"/>
<path d="M41.3333 26.6667C40.5971 26.6667 40 26.0697 40 25.3333C40 24.597 40.5971 24 41.3333 24C42.0696 24 42.6667 24.597 42.6667 25.3333C42.6667 26.0697 42.0696 26.6667 41.3333 26.6667Z" fill="#00C386" stroke="#00C386" stroke-linecap="round" stroke-linejoin="round"/>
<path d="M8 42.6667V21.3333C8 13.9695 13.9695 8 21.3333 8H42.6667C50.0304 8 56 13.9695 56 21.3333V42.6667C56 50.0304 50.0304 56 42.6667 56H21.3333C13.9695 56 8 50.0304 8 42.6667Z" stroke="#A4A4A4"/>
</g>
<defs>
<clipPath id="clip0_2651_9050">
<rect width="64" height="64" fill="white"/>
</clipPath>
</defs>
</svg>
