<svg width="100" height="100" viewBox="0 0 100 100" fill="none" xmlns="http://www.w3.org/2000/svg">
<g clip-path="url(#clip0_436_1347)">
<path d="M54.5984 90.9921C55.3534 91.4117 57.375 90.6248 57.375 89.8436V29.6876C57.375 28.1251 56.5938 26.9532 55.9541 26.5626C55.3145 26.2188 21.7693 7.76936 21.0707 7.38658C20.2765 6.95144 18.3125 7.81239 18.3125 8.76263L18.3126 69.3625C18.3126 70.2704 18.8048 71.1066 19.5985 71.5479L54.5984 90.9921Z" stroke="white" stroke-linecap="round" stroke-linejoin="round"/>
<path d="M24.0059 24C30.2715 27.4453 44.9239 35.5031 52.0002 39.3917" stroke="white" stroke-linecap="round" stroke-linejoin="round"/>
<path d="M24.0059 34C30.2715 37.4453 44.9239 45.5031 52.0002 49.3917" stroke="white" stroke-linecap="round" stroke-linejoin="round"/>
<path d="M24.0059 44C30.2715 47.4453 44.9239 55.5031 52.0002 59.3917" stroke="white" stroke-linecap="round" stroke-linejoin="round"/>
<path d="M24.0059 54C27.0016 55.6473 31.9147 58.349 37.0002 61.1454" stroke="white" stroke-linecap="round" stroke-linejoin="round"/>
<path d="M43.625 13.8751C43.625 8.94525 43.625 8.97963 43.625 8.76263C43.625 7.81239 45.589 6.95144 46.3832 7.38658C47.0818 7.76936 80.627 26.2188 81.2666 26.5626C81.9062 26.9532 82.6875 28.1251 82.6875 29.6876C82.6875 31.2501 82.6875 89.1538 82.6875 89.8436C82.6875 90.6248 80.6659 91.4116 79.9109 90.9921L62.4109 81.27" stroke="white" stroke-linecap="round" stroke-linejoin="round"/>
<path d="M1 17V9C1 4.58172 4.58172 1 9 1H17" stroke="#373737"/>
<path d="M99 83V91C99 95.4183 95.4183 99 91 99H83" stroke="#373737"/>
</g>
<defs>
<clipPath id="clip0_436_1347">
<rect width="100" height="100" fill="white"/>
</clipPath>
</defs>
</svg>
