<svg width="240" height="240" viewBox="0 0 240 240" fill="none" xmlns="http://www.w3.org/2000/svg">
<mask id="mask0_2651_8795" style="mask-type:alpha" maskUnits="userSpaceOnUse" x="0" y="0" width="240" height="240">
<path fill-rule="evenodd" clip-rule="evenodd" d="M120 240C186.274 240 240 186.274 240 120C240 53.7258 186.274 0 120 0C53.7258 0 0 53.7258 0 120C0 186.274 53.7258 240 120 240ZM120 160C142.091 160 160 142.091 160 120C160 97.9086 142.091 80 120 80C97.9086 80 80 97.9086 80 120C80 142.091 97.9086 160 120 160Z" fill="#D9D9D9"/>
</mask>
<g mask="url(#mask0_2651_8795)">
<mask id="path-2-inside-1_2651_8795" fill="white">
<path fill-rule="evenodd" clip-rule="evenodd" d="M120 240C186.274 240 240 186.274 240 120C240 53.7258 186.274 0 120 0C53.7258 0 0 53.7258 0 120C0 186.274 53.7258 240 120 240ZM120 160C142.091 160 160 142.091 160 120C160 97.9086 142.091 80 120 80C97.9086 80 80 97.9086 80 120C80 142.091 97.9086 160 120 160Z"/>
</mask>
<path d="M239 120C239 185.722 185.722 239 120 239V241C186.826 241 241 186.826 241 120H239ZM120 1C185.722 1 239 54.2781 239 120H241C241 53.1735 186.826 -1 120 -1V1ZM1 120C1 54.2781 54.2781 1 120 1V-1C53.1735 -1 -1 53.1735 -1 120H1ZM120 239C54.2781 239 1 185.722 1 120H-1C-1 186.826 53.1735 241 120 241V239ZM159 120C159 141.539 141.539 159 120 159V161C142.644 161 161 142.644 161 120H159ZM120 81C141.539 81 159 98.4609 159 120H161C161 97.3563 142.644 79 120 79V81ZM81 120C81 98.4609 98.4609 81 120 81V79C97.3563 79 79 97.3563 79 120H81ZM120 159C98.4609 159 81 141.539 81 120H79C79 142.644 97.3563 161 120 161V159Z" fill="#A4A4A4" mask="url(#path-2-inside-1_2651_8795)"/>
<path d="M119 0H240V243H119V123V0Z" fill="#00C386"/>
</g>
<path d="M190.221 115.968C190.221 116.075 190.167 116.128 190.061 116.128H184.381C184.338 116.128 184.317 116.149 184.317 116.192V119.632C184.317 119.675 184.338 119.696 184.381 119.696H188.285C188.391 119.696 188.445 119.749 188.445 119.856V120.864C188.445 120.971 188.391 121.024 188.285 121.024H184.381C184.338 121.024 184.317 121.045 184.317 121.088V124.608C184.317 124.651 184.338 124.672 184.381 124.672H190.061C190.167 124.672 190.221 124.725 190.221 124.832V125.84C190.221 125.947 190.167 126 190.061 126H182.941C182.834 126 182.781 125.947 182.781 125.84V114.96C182.781 114.853 182.834 114.8 182.941 114.8H190.061C190.167 114.8 190.221 114.853 190.221 114.96V115.968ZM199.463 114.8C199.57 114.8 199.623 114.853 199.623 114.96V115.984C199.623 116.091 199.57 116.144 199.463 116.144H196.391C196.349 116.144 196.327 116.165 196.327 116.208V125.84C196.327 125.947 196.274 126 196.167 126H194.951C194.845 126 194.791 125.947 194.791 125.84V116.208C194.791 116.165 194.77 116.144 194.727 116.144H191.799C191.693 116.144 191.639 116.091 191.639 115.984V114.96C191.639 114.853 191.693 114.8 191.799 114.8H199.463ZM207.755 114.96C207.755 114.853 207.808 114.8 207.915 114.8H209.131C209.237 114.8 209.291 114.853 209.291 114.96V125.84C209.291 125.947 209.237 126 209.131 126H207.915C207.808 126 207.755 125.947 207.755 125.84V121.088C207.755 121.045 207.733 121.024 207.691 121.024H203.131C203.088 121.024 203.067 121.045 203.067 121.088V125.84C203.067 125.947 203.013 126 202.907 126H201.691C201.584 126 201.531 125.947 201.531 125.84V114.96C201.531 114.853 201.584 114.8 201.691 114.8H202.907C203.013 114.8 203.067 114.853 203.067 114.96V119.632C203.067 119.675 203.088 119.696 203.131 119.696H207.691C207.733 119.696 207.755 119.675 207.755 119.632V114.96Z" fill="white"/>
<path d="M24.6204 126.128C23.8417 126.128 23.1537 125.979 22.5564 125.68C21.9697 125.371 21.511 124.939 21.1804 124.384C20.8497 123.819 20.6844 123.173 20.6844 122.448V114.96C20.6844 114.853 20.7377 114.8 20.8444 114.8H22.0604C22.167 114.8 22.2204 114.853 22.2204 114.96V122.48C22.2204 123.173 22.439 123.733 22.8764 124.16C23.3244 124.587 23.9057 124.8 24.6204 124.8C25.335 124.8 25.911 124.587 26.3484 124.16C26.7857 123.733 27.0044 123.173 27.0044 122.48V114.96C27.0044 114.853 27.0577 114.8 27.1644 114.8H28.3804C28.487 114.8 28.5404 114.853 28.5404 114.96V122.448C28.5404 123.173 28.375 123.819 28.0444 124.384C27.7244 124.939 27.2657 125.371 26.6684 125.68C26.0817 125.979 25.399 126.128 24.6204 126.128ZM34.5024 126.128C33.681 126.128 32.9664 126 32.3584 125.744C31.761 125.488 31.297 125.125 30.9664 124.656C30.6464 124.187 30.4864 123.637 30.4864 123.008V122.544C30.4864 122.437 30.5397 122.384 30.6464 122.384H31.8144C31.921 122.384 31.9744 122.437 31.9744 122.544V122.928C31.9744 123.472 32.209 123.92 32.6784 124.272C33.1477 124.624 33.793 124.8 34.6144 124.8C35.3504 124.8 35.905 124.645 36.2784 124.336C36.6517 124.027 36.8384 123.621 36.8384 123.12C36.8384 122.789 36.7424 122.507 36.5504 122.272C36.3584 122.037 36.0757 121.824 35.7024 121.632C35.3397 121.429 34.8064 121.189 34.1024 120.912C33.3237 120.613 32.705 120.341 32.2464 120.096C31.7984 119.851 31.425 119.531 31.1264 119.136C30.8277 118.731 30.6784 118.224 30.6784 117.616C30.6784 116.699 31.0037 115.979 31.6544 115.456C32.3157 114.933 33.2064 114.672 34.3264 114.672C35.1157 114.672 35.809 114.805 36.4064 115.072C37.0037 115.339 37.4624 115.712 37.7824 116.192C38.113 116.672 38.2784 117.227 38.2784 117.856V118.176C38.2784 118.283 38.225 118.336 38.1184 118.336H36.9184C36.8117 118.336 36.7584 118.283 36.7584 118.176V117.936C36.7584 117.381 36.5344 116.923 36.0864 116.56C35.649 116.187 35.041 116 34.2624 116C33.601 116 33.089 116.139 32.7264 116.416C32.3637 116.683 32.1824 117.072 32.1824 117.584C32.1824 117.936 32.273 118.224 32.4544 118.448C32.6357 118.672 32.9024 118.875 33.2544 119.056C33.617 119.227 34.1664 119.451 34.9024 119.728C35.6597 120.027 36.273 120.304 36.7424 120.56C37.2117 120.805 37.601 121.136 37.9104 121.552C38.2197 121.957 38.3744 122.464 38.3744 123.072C38.3744 124.011 38.0277 124.757 37.3344 125.312C36.6517 125.856 35.7077 126.128 34.5024 126.128ZM44.8366 114.784C45.4873 114.784 46.058 114.923 46.5486 115.2C47.05 115.467 47.434 115.845 47.7006 116.336C47.978 116.827 48.1166 117.392 48.1166 118.032C48.1166 118.672 47.978 119.232 47.7006 119.712C47.4233 120.192 47.0286 120.565 46.5166 120.832C46.0153 121.099 45.434 121.232 44.7726 121.232H41.9566C41.914 121.232 41.8926 121.253 41.8926 121.296V125.84C41.8926 125.947 41.8393 126 41.7326 126H40.5166C40.41 126 40.3566 125.947 40.3566 125.84V114.944C40.3566 114.837 40.41 114.784 40.5166 114.784H44.8366ZM44.6286 119.984C45.2153 119.984 45.6846 119.808 46.0366 119.456C46.3993 119.104 46.5806 118.64 46.5806 118.064C46.5806 117.477 46.3993 117.008 46.0366 116.656C45.6846 116.293 45.2153 116.112 44.6286 116.112H41.9566C41.914 116.112 41.8926 116.133 41.8926 116.176V119.92C41.8926 119.963 41.914 119.984 41.9566 119.984H44.6286ZM50.097 126C49.9903 126 49.937 125.947 49.937 125.84V114.96C49.937 114.853 49.9903 114.8 50.097 114.8H53.969C55.0783 114.8 55.9637 115.093 56.625 115.68C57.2863 116.256 57.617 117.029 57.617 118V122.8C57.617 123.771 57.2863 124.549 56.625 125.136C55.9637 125.712 55.0783 126 53.969 126H50.097ZM51.473 124.608C51.473 124.651 51.4943 124.672 51.537 124.672H54.033C54.6517 124.672 55.1423 124.485 55.505 124.112C55.8783 123.728 56.0703 123.216 56.081 122.576V118.224C56.081 117.584 55.8943 117.077 55.521 116.704C55.1583 116.32 54.6623 116.128 54.033 116.128H51.537C51.4943 116.128 51.473 116.149 51.473 116.192V124.608Z" fill="#A4A4A4"/>
<path d="M115.759 120.096C115.652 120.096 115.599 120.043 115.599 119.936V118.928C115.599 118.821 115.652 118.768 115.759 118.768H122.239C122.346 118.768 122.399 118.821 122.399 118.928V119.936C122.399 120.043 122.346 120.096 122.239 120.096H115.759ZM115.759 123.328C115.652 123.328 115.599 123.275 115.599 123.168V122.16C115.599 122.053 115.652 122 115.759 122H122.239C122.346 122 122.399 122.053 122.399 122.16V123.168C122.399 123.275 122.346 123.328 122.239 123.328H115.759Z" fill="white"/>
</svg>
