<svg width="128" height="128" viewBox="0 0 128 128" fill="none" xmlns="http://www.w3.org/2000/svg">
<path d="M15 19.2V108.8C15 111.12 16.8804 113 19.2 113H108.8C111.12 113 113 111.12 113 108.8V19.2C113 16.8804 111.12 15 108.8 15H19.2C16.8804 15 15 16.8804 15 19.2Z" stroke="#00C386" stroke-width="2"/>
<path d="M80.0004 85.6C83.0927 85.6 85.6004 83.0923 85.6004 80C85.6004 76.9077 83.0927 74.4 80.0004 74.4C76.9081 74.4 74.4004 76.9077 74.4004 80C74.4004 83.0923 76.9081 85.6 80.0004 85.6Z" stroke="#00C386"/>
<path d="M48.0004 53.6C51.0932 53.6 53.6004 51.0928 53.6004 48C53.6004 44.9073 51.0932 42.4 48.0004 42.4C44.9076 42.4 42.4004 44.9073 42.4004 48C42.4004 51.0928 44.9076 53.6 48.0004 53.6Z" stroke="#00C386"/>
<path d="M85.3337 42.6667L42.667 85.3334" stroke="#00C386" stroke-linecap="round" stroke-linejoin="round"/>
</svg>
