<svg width="100" height="100" viewBox="0 0 100 100" fill="none" xmlns="http://www.w3.org/2000/svg">
<g clip-path="url(#clip0_2651_8749)">
<g clip-path="url(#clip1_2651_8749)">
<path fill-rule="evenodd" clip-rule="evenodd" d="M68.6664 47.3233L76.7823 52.8838L65.6519 87.8687H37.1303L23.6811 79.2962H58.4635L68.6664 47.3233ZM60.0867 26.4713L90 48.0183L81.1881 76.7476L69.3621 85.5518L80.0287 51.9571L52.4346 32.4953C55.2418 30.3238 57.2795 28.6429 60.0867 26.4713V26.4713ZM14.4058 33.8854L26.4637 67.2484H59.1592L56.6085 76.2843H19.5072L10 48.0183L14.4058 33.8854ZM55.2172 11.875L27.1593 32.9586L37.1303 64.2365H28.0869L16.4928 29.9466L41.0723 11.875H55.2172ZM60.0867 11.875L84.6663 29.9466L89.3043 44.3113L60.0867 22.9961C60.0867 22.9961 43.7833 35.5923 33.1883 42.9212L30.1738 33.8854L60.0867 11.875Z" stroke="#00C386" stroke-linecap="round" stroke-linejoin="round"/>
</g>
<path d="M1 17V9C1 4.58172 4.58172 1 9 1H17" stroke="#A4A4A4"/>
<path d="M99 83V91C99 95.4183 95.4183 99 91 99H83" stroke="#A4A4A4"/>
</g>
<defs>
<clipPath id="clip0_2651_8749">
<rect width="100" height="100" fill="white"/>
</clipPath>
<clipPath id="clip1_2651_8749">
<rect width="80" height="80" fill="white" transform="translate(10 10)"/>
</clipPath>
</defs>
</svg>
