<?xml version="1.0" encoding="UTF-8"?>
<svg id="Layer_1" xmlns="http://www.w3.org/2000/svg" version="1.1" viewBox="0 0 32 32">
  <!-- Generator: Adobe Illustrator 29.4.0, SVG Export Plug-In . SVG Version: 2.1.0 Build 152)  -->
  <defs>
    <style>
      .st0, .st1 {
        fill: #00c386;
      }

      .st1 {
        fill-rule: evenodd;
      }
    </style>
  </defs>
  <path class="st1" d="M7.1,3l1.1,4.2c.4,1.4,1.7,2.2,3,1.8,1.3-.4,2.1-1.8,1.7-3.1l-1.1-4.2,2-.6,1.1,4.2c.6,2.1-.4,4.3-2.2,5.4l.6,2.2-2,.6-.6-2.2c-2.1,0-4-1.3-4.5-3.5l-1.1-4.2,2-.6Z"/>
  <path class="st1" d="M22.7,1.5l-3,3.1c-1,1-1,2.6,0,3.6,1,1,2.5,1,3.5,0l3-3.1,1.5,1.5-3,3.1c-1.5,1.6-3.9,1.8-5.6.7l-1.6,1.6-1.5-1.5,1.6-1.6c-1.1-1.8-.9-4.2.7-5.8l3-3.1,1.5,1.5Z"/>
  <path class="st1" d="M31.5,14.6l-4.1-1.1c-1.3-.4-2.7.4-3,1.8-.4,1.4.4,2.7,1.7,3.1l4.1,1.1-.5,2.1-4.1-1.1c-2.1-.6-3.4-2.5-3.4-4.7l-2.2-.6.5-2.1,2.2.6c1-1.9,3.1-2.9,5.2-2.3l4.1,1.1-.5,2.1Z"/>
  <path class="st1" d="M.5,17.4l4.1,1.1c1.3.4,2.7-.4,3-1.8.4-1.4-.4-2.7-1.7-3.1l-4.1-1.1.5-2.1,4.1,1.1c2.1.6,3.4,2.5,3.4,4.7l2.2.6-.5,2.1-2.2-.6c-1,1.9-3.1,2.9-5.2,2.3l-4.1-1.1.5-2.1Z"/>
  <path class="st1" d="M25.1,29l-1.1-4.2c-.4-1.4-1.7-2.2-3-1.8-1.3.4-2.1,1.8-1.7,3.1l1.1,4.2-2,.6-1.1-4.2c-.6-2.1.4-4.3,2.2-5.4l-.6-2.2,2-.6.6,2.2c2.1,0,4,1.3,4.5,3.5l1.1,4.2-2,.6Z"/>
  <path class="st1" d="M9.5,30.5l3-3.1c1-1,1-2.6,0-3.6-1-1-2.5-1-3.5,0l-3,3.1-1.5-1.5,3-3.1c1.5-1.6,3.9-1.8,5.6-.7l1.6-1.6,1.5,1.5-1.6,1.6c1.1,1.8.9,4.2-.7,5.8l-3,3.1-1.5-1.5Z"/>
  <ellipse class="st0" cx="16" cy="16" rx="2" ry="2"/>
</svg>