<svg width="325" height="102" viewBox="0 0 325 102" fill="none" xmlns="http://www.w3.org/2000/svg">
<path d="M287.591 82.7764C287.061 82.7764 286.796 82.5111 286.796 81.9805V27.8574C286.796 27.3268 287.061 27.0615 287.591 27.0615H306.853C312.371 27.0615 316.775 28.5207 320.065 31.4391C323.355 34.3045 325 38.1514 325 42.9801V66.8579C325 71.6865 323.355 75.56 320.065 78.4784C316.775 81.3438 312.371 82.7764 306.853 82.7764H287.591ZM294.436 75.8519C294.436 76.0641 294.543 76.1702 294.755 76.1702H307.171C310.249 76.1702 312.69 75.2416 314.494 73.3845C316.351 71.4743 317.306 68.9273 317.359 65.7436V44.0944C317.359 40.9107 316.431 38.3902 314.573 36.5331C312.769 34.6228 310.302 33.6677 307.171 33.6677H294.755C294.543 33.6677 294.436 33.7738 294.436 33.9861V75.8519Z" fill="#00C386"/>
<path d="M253.464 26.9819C256.701 26.9819 259.54 27.6717 261.981 29.0513C264.475 30.3778 266.385 32.2615 267.711 34.7024C269.091 37.1432 269.781 39.9555 269.781 43.1392C269.781 46.3229 269.091 49.1086 267.711 51.4964C266.332 53.8842 264.368 55.7414 261.821 57.0679C259.328 58.3944 256.436 59.0577 253.146 59.0577H239.138C238.925 59.0577 238.819 59.1638 238.819 59.3761V81.9804C238.819 82.511 238.554 82.7764 238.023 82.7764H231.974C231.444 82.7764 231.178 82.511 231.178 81.9804V27.7778C231.178 27.2472 231.444 26.9819 231.974 26.9819H253.464ZM252.43 52.8495C255.348 52.8495 257.683 51.974 259.434 50.2229C261.238 48.4719 262.14 46.1637 262.14 43.2984C262.14 40.38 261.238 38.0452 259.434 36.2942C257.683 34.4901 255.348 33.5881 252.43 33.5881H239.138C238.925 33.5881 238.819 33.6942 238.819 33.9064V52.5311C238.819 52.7434 238.925 52.8495 239.138 52.8495H252.43Z" fill="#00C386"/>
<path d="M194.097 83.4131C190.011 83.4131 186.456 82.7764 183.431 81.5029C180.46 80.2294 178.152 78.4253 176.507 76.0906C174.915 73.7559 174.119 71.0232 174.119 67.8926V65.5844C174.119 65.0537 174.384 64.7884 174.915 64.7884H180.725C181.256 64.7884 181.521 65.0537 181.521 65.5844V67.4946C181.521 70.2007 182.688 72.4293 185.023 74.1804C187.358 75.9314 190.568 76.8069 194.654 76.8069C198.315 76.8069 201.074 76.0375 202.932 74.4987C204.789 72.9599 205.717 70.9436 205.717 68.4497C205.717 66.8048 205.24 65.3986 204.285 64.2313C203.329 63.0639 201.923 62.0027 200.066 61.0476C198.262 60.0394 195.609 58.8455 192.107 57.4659C188.233 55.9802 185.156 54.6271 182.874 53.4067C180.646 52.1863 178.788 50.5944 177.303 48.6311C175.817 46.6148 175.074 44.0943 175.074 41.0698C175.074 36.5065 176.692 32.9248 179.929 30.3248C183.219 27.7248 187.65 26.4247 193.221 26.4247C197.148 26.4247 200.597 27.088 203.568 28.4146C206.54 29.7411 208.821 31.5983 210.413 33.986C212.058 36.3738 212.881 39.133 212.881 42.2637V43.8555C212.881 44.3862 212.615 44.6515 212.085 44.6515H206.115C205.585 44.6515 205.319 44.3862 205.319 43.8555V42.6617C205.319 39.9024 204.205 37.6208 201.976 35.8167C199.801 33.9595 196.776 33.0309 192.903 33.0309C189.613 33.0309 187.066 33.7207 185.262 35.1003C183.458 36.4269 182.556 38.3637 182.556 40.9106C182.556 42.6617 183.007 44.0943 183.909 45.2086C184.811 46.3229 186.137 47.3311 187.888 48.2331C189.693 49.0821 192.425 50.1964 196.087 51.576C199.854 53.0618 202.905 54.4414 205.24 55.7149C207.574 56.9353 209.511 58.5802 211.05 60.6496C212.589 62.666 213.358 65.1864 213.358 68.2109C213.358 72.8804 211.634 76.5947 208.185 79.3539C204.789 82.06 200.093 83.4131 194.097 83.4131Z" fill="#00C386"/>
<path d="M136.979 83.4132C133.106 83.4132 129.683 82.6703 126.712 81.1846C123.793 79.6458 121.512 77.4968 119.867 74.7376C118.222 71.9253 117.399 68.715 117.399 65.1068V27.8574C117.399 27.3268 117.665 27.0615 118.195 27.0615H124.244C124.775 27.0615 125.04 27.3268 125.04 27.8574V65.266C125.04 68.715 126.128 71.5008 128.303 73.6233C130.532 75.7457 133.424 76.807 136.979 76.807C140.534 76.807 143.4 75.7457 145.575 73.6233C147.751 71.5008 148.838 68.715 148.838 65.266V27.8574C148.838 27.3268 149.104 27.0615 149.634 27.0615H155.683C156.214 27.0615 156.479 27.3268 156.479 27.8574V65.1068C156.479 68.715 155.657 71.9253 154.012 74.7376C152.42 77.4968 150.138 79.6458 147.167 81.1846C144.249 82.6703 140.853 83.4132 136.979 83.4132Z" fill="#00C386"/>
<path fill-rule="evenodd" clip-rule="evenodd" d="M24.1029 12.7422L27.3989 25.0431C28.4608 29.0061 32.5342 31.3578 36.4971 30.296C40.4601 29.2341 42.8119 25.1607 41.75 21.1978L38.454 8.89687L44.6044 7.24886L47.9004 19.5498C49.5889 25.8511 46.63 32.3028 41.1248 35.2658L42.8684 41.7729L36.7179 43.4209L34.9744 36.9138C28.7252 37.1003 22.9369 32.9924 21.2485 26.6911L17.9525 14.3902L24.1029 12.7422Z" fill="#00C386"/>
<path fill-rule="evenodd" clip-rule="evenodd" d="M71.2606 8.58818L62.2558 17.5931C59.3547 20.4941 59.3547 25.1977 62.2557 28.0988C65.1568 30.9998 69.8604 30.9998 72.7615 28.0988L81.7663 19.0939L86.2688 23.5963L77.2639 32.6012C72.651 37.2141 65.5842 37.8775 60.2656 34.5914L55.5021 39.3549L50.9996 34.8524L55.7631 30.089C52.477 24.7703 53.1404 17.7035 57.7533 13.0906L66.7582 4.08574L71.2606 8.58818Z" fill="#00C386"/>
<path fill-rule="evenodd" clip-rule="evenodd" d="M97.5675 46.7853L85.2666 43.4893C81.3037 42.4274 77.2303 44.7792 76.1684 48.7421C75.1066 52.7051 77.4583 56.7785 81.4213 57.8403L93.7222 61.1363L92.0742 67.2868L79.7733 63.9908C73.472 62.3024 69.3641 56.514 69.5506 50.2649L63.0435 48.5213L64.6915 42.3709L71.1986 44.1144C74.1616 38.6093 80.6133 35.6504 86.9146 37.3388L99.2155 40.6348L97.5675 46.7853Z" fill="#00C386"/>
<path fill-rule="evenodd" clip-rule="evenodd" d="M4.31221 55.0934L16.6131 58.3894C20.576 59.4513 24.6495 57.0995 25.7113 53.1366C26.7732 49.1736 24.4214 45.1002 20.4585 44.0383L8.15756 40.7423L9.80557 34.5919L22.1065 37.8879C28.4078 39.5763 32.5157 45.3646 32.3292 51.6138L38.8362 53.3573L37.1882 59.5078L30.6812 57.7642C27.7181 63.2694 21.2664 66.2283 14.9651 64.5399L2.6642 61.2438L4.31221 55.0934Z" fill="#00C386"/>
<path fill-rule="evenodd" clip-rule="evenodd" d="M78.4565 89.287L75.1604 76.9861C74.0986 73.0232 70.0252 70.6714 66.0622 71.7333C62.0993 72.7952 59.7475 76.8686 60.8094 80.8315L64.1054 93.1324L57.9549 94.7804L54.6589 82.4795C52.9705 76.1782 55.9294 69.7265 61.4345 66.7634L59.691 60.2564L65.8414 58.6084L67.585 65.1154C73.8341 64.9289 79.6225 69.0368 81.3109 75.3381L84.6069 87.639L78.4565 89.287Z" fill="#00C386"/>
<path fill-rule="evenodd" clip-rule="evenodd" d="M31.2983 93.4401L40.3032 84.4352C43.2043 81.5342 43.2043 76.8306 40.3032 73.9295C37.4022 71.0285 32.6986 71.0285 29.7975 73.9295L20.7926 82.9344L16.2902 78.432L25.2951 69.4271C29.9079 64.8142 36.9747 64.1508 42.2934 67.4369L47.0569 62.6734L51.5593 67.1759L46.7959 71.9393C50.0819 77.258 49.4185 84.3248 44.8057 88.9377L35.8008 97.9426L31.2983 93.4401Z" fill="#00C386"/>
<circle cx="50.9398" cy="50.9393" r="5.96945" fill="#00C386"/>
</svg>
