<svg width="40" height="40" viewBox="0 0 40 40" fill="none" xmlns="http://www.w3.org/2000/svg">
<g clip-path="url(#clip0_446_3251)">
<path d="M20 40C31.0457 40 40 31.0457 40 20C40 8.9543 31.0457 0 20 0C8.9543 0 0 8.9543 0 20C0 31.0457 8.9543 40 20 40Z" fill="#3E73C4"/>
<path d="M25.0279 22.6549C25.0279 19.9999 23.4279 19.0899 20.2279 18.7099C17.9429 18.4062 17.4867 17.7999 17.4867 16.7374C17.4867 15.6749 18.2492 14.9924 19.7717 14.9924C21.1429 14.9924 21.9054 15.4474 22.2854 16.5862C22.325 16.6963 22.3974 16.7916 22.4929 16.8594C22.5883 16.9271 22.7022 16.9639 22.8192 16.9649H24.0379C24.1083 16.9668 24.1784 16.9544 24.2438 16.9284C24.3093 16.9024 24.3687 16.8634 24.4186 16.8137C24.4686 16.764 24.5079 16.7047 24.5342 16.6394C24.5605 16.5741 24.5732 16.5041 24.5717 16.4337V16.3587C24.4227 15.5348 24.0059 14.7832 23.3859 14.2206C22.7658 13.658 21.9774 13.3159 21.1429 13.2474V11.4274C21.1429 11.1237 20.9142 10.8962 20.5342 10.8199H19.3904C19.0867 10.8199 18.8579 11.0474 18.7817 11.4274V13.1724C16.4954 13.4749 15.0492 14.9924 15.0492 16.8899C15.0492 19.3924 16.5717 20.3787 19.7717 20.7587C21.9054 21.1374 22.5904 21.5937 22.5904 22.8074C22.5904 24.0199 21.5242 24.8549 20.0767 24.8549C18.0954 24.8549 17.4104 24.0212 17.1817 22.8824C17.1067 22.5799 16.8767 22.4274 16.6479 22.4274H15.3529C15.2826 22.4257 15.2127 22.4383 15.1474 22.4644C15.0822 22.4905 15.0228 22.5295 14.973 22.5792C14.9233 22.6288 14.8841 22.6881 14.8579 22.7533C14.8316 22.8185 14.8189 22.8884 14.8204 22.9587V23.0337C15.1242 24.9312 16.3442 26.2962 18.8579 26.6762V28.4974C18.8579 28.7999 19.0867 29.0287 19.4667 29.1037H20.6104C20.9142 29.1037 21.1429 28.8762 21.2192 28.4974V26.6749C23.5054 26.2962 25.0279 24.7024 25.0279 22.6537V22.6549Z" fill="white"/>
<path d="M16.1151 30.6212C10.1726 28.4962 7.12511 21.8962 9.33511 16.055C10.4776 12.8675 12.9914 10.4412 16.1151 9.3025C16.4201 9.15125 16.5714 8.92375 16.5714 8.54375V7.48125C16.5714 7.17875 16.4201 6.95125 16.1151 6.875C16.0389 6.875 15.8864 6.875 15.8101 6.95C14.0957 7.48541 12.504 8.35466 11.1269 9.50772C9.74975 10.6608 8.6143 12.0749 7.78592 13.6685C6.95754 15.2622 6.45258 17.004 6.30012 18.7937C6.14767 20.5833 6.35073 22.3854 6.89761 24.0963C8.26761 28.3463 11.5439 31.6087 15.8101 32.9737C16.1151 33.125 16.4201 32.9737 16.4951 32.67C16.5714 32.595 16.5714 32.5175 16.5714 32.3662V31.3037C16.5714 31.0762 16.3439 30.7737 16.1151 30.6212ZM24.1901 6.95125C23.8851 6.79875 23.5801 6.95125 23.5051 7.25375C23.4289 7.33 23.4289 7.40625 23.4289 7.5575V8.62C23.4289 8.92375 23.6564 9.22625 23.8851 9.37875C29.8276 11.5037 32.8751 18.1038 30.6651 23.945C29.5226 27.1325 27.0089 29.5588 23.8851 30.6975C23.5801 30.8488 23.4289 31.0763 23.4289 31.4563V32.5187C23.4289 32.8212 23.5801 33.0487 23.8851 33.125C23.9614 33.125 24.1139 33.125 24.1901 33.05C25.9046 32.5146 27.4962 31.6453 28.8733 30.4923C30.2505 29.3392 31.3859 27.9251 32.2143 26.3315C33.0427 24.7378 33.5476 22.996 33.7001 21.2063C33.8526 19.4167 33.6495 17.6146 33.1026 15.9037C31.7326 11.5787 28.3801 8.31625 24.1901 6.95125Z" fill="white"/>
</g>
<defs>
<clipPath id="clip0_446_3251">
<rect width="40" height="40" fill="white"/>
</clipPath>
</defs>
</svg>
