<svg width="40" height="40" viewBox="0 0 40 40" fill="none" xmlns="http://www.w3.org/2000/svg">
<path fill-rule="evenodd" clip-rule="evenodd" d="M9.46364 5.00285L10.7577 9.83248C11.1747 11.3884 12.774 12.3118 14.3299 11.8949C15.8859 11.478 16.8092 9.87865 16.3923 8.3227L15.0982 3.49308L17.513 2.84603L18.8071 7.67566C19.47 10.1497 18.3083 12.6828 16.1469 13.8462L16.8314 16.401L14.4166 17.048L13.732 14.4932C11.2785 14.5664 9.00584 12.9536 8.34292 10.4795L7.04883 5.6499L9.46364 5.00285Z" fill="#00C386"/>
<path fill-rule="evenodd" clip-rule="evenodd" d="M27.9787 3.37189L24.4432 6.90743C23.3041 8.04646 23.3041 9.89319 24.4432 11.0322C25.5822 12.1712 27.4289 12.1712 28.568 11.0322L32.1035 7.49668L33.8713 9.26445L30.3357 12.8C28.5246 14.6111 25.75 14.8716 23.6618 13.5814L21.7915 15.4516L20.0238 13.6839L21.894 11.8136C20.6038 9.72537 20.8643 6.95079 22.6754 5.13966L26.2109 1.60413L27.9787 3.37189Z" fill="#00C386"/>
<path fill-rule="evenodd" clip-rule="evenodd" d="M38.3071 18.369L33.4774 17.0749C31.9215 16.658 30.3222 17.5814 29.9053 19.1373C29.4883 20.6933 30.4117 22.2926 31.9677 22.7095L36.7973 24.0036L36.1502 26.4184L31.3206 25.1243C28.8466 24.4614 27.2337 22.1888 27.3069 19.7352L24.7521 19.0506L25.3991 16.6358L27.954 17.3204C29.1173 15.1589 31.6504 13.9972 34.1245 14.6601L38.9541 15.9542L38.3071 18.369Z" fill="#00C386"/>
<path fill-rule="evenodd" clip-rule="evenodd" d="M1.69295 21.631L6.52258 22.9251C8.07852 23.342 9.67783 22.4186 10.0947 20.8627C10.5117 19.3067 9.58829 17.7074 8.03235 17.2905L3.20272 15.9964L3.84977 13.5816L8.6794 14.8757C11.1534 15.5386 12.7663 17.8112 12.6931 20.2648L15.2479 20.9494L14.6009 23.3642L12.046 22.6796C10.8827 24.8411 8.34957 26.0028 5.87553 25.3399L1.0459 24.0458L1.69295 21.631Z" fill="#00C386"/>
<path fill-rule="evenodd" clip-rule="evenodd" d="M30.8039 35.0559L29.5098 30.2262C29.0929 28.6703 27.4936 27.7469 25.9377 28.1638C24.3817 28.5808 23.4584 30.1801 23.8753 31.736L25.1694 36.5656L22.7546 37.2127L21.4605 32.3831C20.7975 29.909 21.9593 27.3759 24.1207 26.2126L23.4362 23.6577L25.851 23.0107L26.5355 25.5655C28.9891 25.4923 31.2617 27.1051 31.9247 29.5792L33.2188 34.4088L30.8039 35.0559Z" fill="#00C386"/>
<path fill-rule="evenodd" clip-rule="evenodd" d="M12.2889 36.6868L15.8244 33.1513C16.9634 32.0123 16.9634 30.1655 15.8244 29.0265C14.6854 27.8875 12.8386 27.8875 11.6996 29.0265L8.16408 32.562L6.39632 30.7943L9.93185 27.2587C11.743 25.4476 14.5176 25.1871 16.6058 26.4773L18.4761 24.6071L20.2438 26.3748L18.3736 28.2451C19.6638 30.3333 19.4033 33.1079 17.5922 34.9191L14.0566 38.4546L12.2889 36.6868Z" fill="#00C386"/>
<circle cx="20" cy="20" r="2.34375" fill="#00C386"/>
</svg>
