<svg clip-rule="evenodd" fill-rule="evenodd" height="512" image-rendering="optimizeQuality" shape-rendering="geometricPrecision" text-rendering="geometricPrecision" viewBox="0 0 1706.66 1706.66" width="512" xmlns="http://www.w3.org/2000/svg" xmlns:xodm="http://www.corel.com/coreldraw/odm/2003"><g id="Layer_x0020_1"><path d="m857.32 1546.7h-766.07c-31.68 0-57.44-25.78-57.44-57.47v-1146.71c0-7.07 2.8-13.85 7.81-18.84l315.61-315.87c5-5.01 11.79-7.82 18.86-7.82h792.86c31.68 0 57.46 25.78 57.46 57.46v729.61c0 14.73-11.93 26.67-26.67 26.67-357.22 0-548.52 418.81-321.97 689.18 14.51 17.32 2.13 43.79-20.45 43.79zm-770.18-1193.13v1135.67c0 2.2 1.93 4.14 4.11 4.14h713.08c-199.14-303.13 5.06-711.93 368.73-732.22v-703.68c0-2.19-1.93-4.13-4.13-4.13h-781.8l-300 300.22z"/><path d="m345.28 368.96h-284.8c-23.68 0-35.59-28.78-18.86-45.53l315.59-315.61c16.74-16.74 45.53-4.82 45.53 18.86v284.82c0 31.68-25.76 57.46-57.46 57.46zm-220.43-53.33h220.43c2.19 0 4.13-1.93 4.13-4.13v-220.44z"/><path d="m1050.11 476.72h-746.68c-35.11 0-35.11-53.33 0-53.33h746.68c35.11 0 35.11 53.33 0 53.33z"/><path d="m1050.11 638.37h-746.68c-35.11 0-35.11-53.33 0-53.33h746.68c35.11 0 35.11 53.33 0 53.33z"/><path d="m749.91 800.03h-446.47c-35.11 0-35.11-53.33 0-53.33h446.47c35.11 0 35.1 53.33 0 53.33z"/><path d="m645.98 961.68h-342.54c-35.11 0-35.11-53.33 0-53.33h342.54c35.11 0 35.11 53.33 0 53.33z"/><path d="m645.98 1123.32h-342.54c-35.11 0-35.11-53.33 0-53.33h342.54c35.11 0 35.11 53.33 0 53.33z"/><path d="m1199.72 1706.66c-260.89 0-473.12-212.24-473.12-473.11 0-260.89 212.24-473.14 473.12-473.14 260.89 0 473.12 212.25 473.12 473.14.02 260.88-212.22 473.11-473.12 473.11zm0-892.91c-231.47 0-419.81 188.32-419.81 419.81 0 231.47 188.34 419.79 419.81 419.79s419.8-188.32 419.8-419.79c0-231.49-188.33-419.81-419.8-419.81z"/><path d="m1199.44 1343.76c-4.56 0-9.11-1.17-13.21-3.5l-196.13-111.79c-12.85-7.33-17.25-23.72-9.89-36.5l196.13-339.7c10.24-17.74 35.95-17.74 46.19 0l196.13 339.7c7.39 12.8 2.93 29.19-9.89 36.5l-196.13 111.79c-4.1 2.34-8.65 3.5-13.2 3.5zm-159.63-148.35 159.63 90.98 159.63-90.98-159.63-276.49z"/><path d="m1395.55 1231.98-196.12-82-185.58 79.82c-32.13 13.85-53.19-35.19-21.07-48.99l196.13-84.35c6.72-2.9 14.35-2.9 21.08 0l196.13 84.35c26.57 11.43 18.14 51.17-10.56 51.17z"/><path d="m1199.44 1343.76c-14.74 0-26.67-11.93-26.67-26.67v-451.5c0-35.11 53.33-35.11 53.33 0v451.5c0 14.72-11.95 26.67-26.67 26.67z"/><path d="m1199.44 1628.15c-8.8 0-17.03-4.35-21.98-11.58l-197.02-287.28c-15.93-23.21 10.8-52.2 35.22-38.24l184.33 105.42 183.75-105.4c24.44-13.99 51.2 15.03 35.24 38.25l-197.6 287.28c-4.95 7.25-13.17 11.55-21.94 11.55zm-109.14-232.97 109.17 159.2 109.18-158.73-95.36 54.69c-8.21 4.68-18.3 4.72-26.5.02z"/><path d="m1199.44 1628.15c-14.74 0-26.67-11.93-26.67-26.67v-174.28c0-35.11 53.33-35.11 53.33 0v174.28c0 14.74-11.95 26.67-26.67 26.67z"/></g></svg>