<svg width="240" height="240" viewBox="0 0 240 240" fill="none" xmlns="http://www.w3.org/2000/svg">
<mask id="mask0_825_2000" style="mask-type:alpha" maskUnits="userSpaceOnUse" x="0" y="0" width="240" height="240">
<path fill-rule="evenodd" clip-rule="evenodd" d="M120 240C186.274 240 240 186.274 240 120C240 53.7258 186.274 0 120 0C53.7258 0 0 53.7258 0 120C0 186.274 53.7258 240 120 240ZM120 160C142.091 160 160 142.091 160 120C160 97.9086 142.091 80 120 80C97.9086 80 80 97.9086 80 120C80 142.091 97.9086 160 120 160Z" fill="#D9D9D9"/>
</mask>
<g mask="url(#mask0_825_2000)">
<mask id="path-2-inside-1_825_2000" fill="white">
<path fill-rule="evenodd" clip-rule="evenodd" d="M120 240C186.274 240 240 186.274 240 120C240 53.7258 186.274 0 120 0C53.7258 0 0 53.7258 0 120C0 186.274 53.7258 240 120 240ZM120 160C142.091 160 160 142.091 160 120C160 97.9086 142.091 80 120 80C97.9086 80 80 97.9086 80 120C80 142.091 97.9086 160 120 160Z"/>
</mask>
<path d="M239 120C239 185.722 185.722 239 120 239V241C186.826 241 241 186.826 241 120H239ZM120 1C185.722 1 239 54.2781 239 120H241C241 53.1735 186.826 -1 120 -1V1ZM1 120C1 54.2781 54.2781 1 120 1V-1C53.1735 -1 -1 53.1735 -1 120H1ZM120 239C54.2781 239 1 185.722 1 120H-1C-1 186.826 53.1735 241 120 241V239ZM159 120C159 141.539 141.539 159 120 159V161C142.644 161 161 142.644 161 120H159ZM120 81C141.539 81 159 98.4609 159 120H161C161 97.3563 142.644 79 120 79V81ZM81 120C81 98.4609 98.4609 81 120 81V79C97.3563 79 79 97.3563 79 120H81ZM120 159C98.4609 159 81 141.539 81 120H79C79 142.644 97.3563 161 120 161V159Z" fill="#6E6E6E" mask="url(#path-2-inside-1_825_2000)"/>
<path d="M119 0H240V243H119V123V0Z" fill="#00C386"/>
</g>
<path d="M190.221 115.968C190.221 116.075 190.168 116.128 190.061 116.128H184.381C184.338 116.128 184.317 116.149 184.317 116.192V119.632C184.317 119.675 184.338 119.696 184.381 119.696H188.285C188.392 119.696 188.445 119.749 188.445 119.856V120.864C188.445 120.971 188.392 121.024 188.285 121.024H184.381C184.338 121.024 184.317 121.045 184.317 121.088V124.608C184.317 124.651 184.338 124.672 184.381 124.672H190.061C190.168 124.672 190.221 124.725 190.221 124.832V125.84C190.221 125.947 190.168 126 190.061 126H182.941C182.834 126 182.781 125.947 182.781 125.84V114.96C182.781 114.853 182.834 114.8 182.941 114.8H190.061C190.168 114.8 190.221 114.853 190.221 114.96V115.968Z" fill="white"/>
<path d="M199.463 114.8C199.57 114.8 199.623 114.853 199.623 114.96V115.984C199.623 116.091 199.57 116.144 199.463 116.144H196.391C196.349 116.144 196.327 116.165 196.327 116.208V125.84C196.327 125.947 196.274 126 196.167 126H194.951C194.845 126 194.791 125.947 194.791 125.84V116.208C194.791 116.165 194.77 116.144 194.727 116.144H191.799C191.693 116.144 191.639 116.091 191.639 115.984V114.96C191.639 114.853 191.693 114.8 191.799 114.8H199.463Z" fill="white"/>
<path d="M207.755 114.96C207.755 114.853 207.808 114.8 207.915 114.8H209.131C209.238 114.8 209.291 114.853 209.291 114.96V125.84C209.291 125.947 209.238 126 209.131 126H207.915C207.808 126 207.755 125.947 207.755 125.84V121.088C207.755 121.045 207.734 121.024 207.691 121.024H203.131C203.088 121.024 203.067 121.045 203.067 121.088V125.84C203.067 125.947 203.014 126 202.907 126H201.691C201.584 126 201.531 125.947 201.531 125.84V114.96C201.531 114.853 201.584 114.8 201.691 114.8H202.907C203.014 114.8 203.067 114.853 203.067 114.96V119.632C203.067 119.675 203.088 119.696 203.131 119.696H207.691C207.734 119.696 207.755 119.675 207.755 119.632V114.96Z" fill="white"/>
<path d="M24.6206 126.128C23.8419 126.128 23.1539 125.979 22.5566 125.68C21.9699 125.371 21.5112 124.939 21.1806 124.384C20.8499 123.819 20.6846 123.173 20.6846 122.448V114.96C20.6846 114.853 20.7379 114.8 20.8446 114.8H22.0606C22.1672 114.8 22.2206 114.853 22.2206 114.96V122.48C22.2206 123.173 22.4392 123.733 22.8766 124.16C23.3246 124.587 23.9059 124.8 24.6206 124.8C25.3352 124.8 25.9112 124.587 26.3486 124.16C26.7859 123.733 27.0046 123.173 27.0046 122.48V114.96C27.0046 114.853 27.0579 114.8 27.1646 114.8H28.3806C28.4872 114.8 28.5406 114.853 28.5406 114.96V122.448C28.5406 123.173 28.3752 123.819 28.0446 124.384C27.7246 124.939 27.2659 125.371 26.6686 125.68C26.0819 125.979 25.3992 126.128 24.6206 126.128Z" fill="white"/>
<path d="M34.5026 126.128C33.6812 126.128 32.9666 126 32.3586 125.744C31.7612 125.488 31.2972 125.125 30.9666 124.656C30.6466 124.187 30.4866 123.637 30.4866 123.008V122.544C30.4866 122.437 30.5399 122.384 30.6466 122.384H31.8146C31.9212 122.384 31.9746 122.437 31.9746 122.544V122.928C31.9746 123.472 32.2092 123.92 32.6786 124.272C33.1479 124.624 33.7932 124.8 34.6146 124.8C35.3506 124.8 35.9052 124.645 36.2786 124.336C36.6519 124.027 36.8386 123.621 36.8386 123.12C36.8386 122.789 36.7426 122.507 36.5506 122.272C36.3586 122.037 36.0759 121.824 35.7026 121.632C35.3399 121.429 34.8066 121.189 34.1026 120.912C33.3239 120.613 32.7052 120.341 32.2466 120.096C31.7986 119.851 31.4252 119.531 31.1266 119.136C30.8279 118.731 30.6786 118.224 30.6786 117.616C30.6786 116.699 31.0039 115.979 31.6546 115.456C32.3159 114.933 33.2066 114.672 34.3266 114.672C35.1159 114.672 35.8092 114.805 36.4066 115.072C37.0039 115.339 37.4626 115.712 37.7826 116.192C38.1132 116.672 38.2786 117.227 38.2786 117.856V118.176C38.2786 118.283 38.2252 118.336 38.1186 118.336H36.9186C36.8119 118.336 36.7586 118.283 36.7586 118.176V117.936C36.7586 117.381 36.5346 116.923 36.0866 116.56C35.6492 116.187 35.0412 116 34.2626 116C33.6012 116 33.0892 116.139 32.7266 116.416C32.3639 116.683 32.1826 117.072 32.1826 117.584C32.1826 117.936 32.2732 118.224 32.4546 118.448C32.6359 118.672 32.9026 118.875 33.2546 119.056C33.6172 119.227 34.1666 119.451 34.9026 119.728C35.6599 120.027 36.2732 120.304 36.7426 120.56C37.2119 120.805 37.6012 121.136 37.9106 121.552C38.2199 121.957 38.3746 122.464 38.3746 123.072C38.3746 124.011 38.0279 124.757 37.3346 125.312C36.6519 125.856 35.7079 126.128 34.5026 126.128Z" fill="white"/>
<path d="M44.8368 114.784C45.4875 114.784 46.0582 114.923 46.5488 115.2C47.0502 115.467 47.4342 115.845 47.7008 116.336C47.9782 116.827 48.1168 117.392 48.1168 118.032C48.1168 118.672 47.9782 119.232 47.7008 119.712C47.4235 120.192 47.0288 120.565 46.5168 120.832C46.0155 121.099 45.4342 121.232 44.7728 121.232H41.9568C41.9142 121.232 41.8928 121.253 41.8928 121.296V125.84C41.8928 125.947 41.8395 126 41.7328 126H40.5168C40.4102 126 40.3568 125.947 40.3568 125.84V114.944C40.3568 114.837 40.4102 114.784 40.5168 114.784H44.8368ZM44.6288 119.984C45.2155 119.984 45.6848 119.808 46.0368 119.456C46.3995 119.104 46.5808 118.64 46.5808 118.064C46.5808 117.477 46.3995 117.008 46.0368 116.656C45.6848 116.293 45.2155 116.112 44.6288 116.112H41.9568C41.9142 116.112 41.8928 116.133 41.8928 116.176V119.92C41.8928 119.963 41.9142 119.984 41.9568 119.984H44.6288Z" fill="white"/>
<path d="M50.0972 126C49.9905 126 49.9372 125.947 49.9372 125.84V114.96C49.9372 114.853 49.9905 114.8 50.0972 114.8H53.9692C55.0785 114.8 55.9639 115.093 56.6252 115.68C57.2865 116.256 57.6172 117.029 57.6172 118V122.8C57.6172 123.771 57.2865 124.549 56.6252 125.136C55.9639 125.712 55.0785 126 53.9692 126H50.0972ZM51.4732 124.608C51.4732 124.651 51.4945 124.672 51.5372 124.672H54.0332C54.6519 124.672 55.1425 124.485 55.5052 124.112C55.8785 123.728 56.0705 123.216 56.0812 122.576V118.224C56.0812 117.584 55.8945 117.077 55.5212 116.704C55.1585 116.32 54.6625 116.128 54.0332 116.128H51.5372C51.4945 116.128 51.4732 116.149 51.4732 116.192V124.608Z" fill="white"/>
<path d="M115.759 120.096C115.653 120.096 115.599 120.043 115.599 119.936V118.928C115.599 118.821 115.653 118.768 115.759 118.768H122.239C122.346 118.768 122.399 118.821 122.399 118.928V119.936C122.399 120.043 122.346 120.096 122.239 120.096H115.759ZM115.759 123.328C115.653 123.328 115.599 123.275 115.599 123.168V122.16C115.599 122.053 115.653 122 115.759 122H122.239C122.346 122 122.399 122.053 122.399 122.16V123.168C122.399 123.275 122.346 123.328 122.239 123.328H115.759Z" fill="white"/>
</svg>
